<svg xmlns="http://www.w3.org/2000/svg" viewBox="0 0 900 650"><rect width="900" height="650" fill="#f7f9fc"/><path d="M0 510h900v140H0z" fill="#dbe4ef"/><g transform="translate(130 245)"><path d="M40 190V98c0-35 28-63 63-63h330c55 0 90 26 121 71l50 73v72H40z" fill="#fff" stroke="#cbd5e1" stroke-width="8"/><path d="M408 50v93h127l-46-66c-13-18-34-27-81-27z" fill="#b9d6f2"/><rect x="85" y="78" width="275" height="72" rx="12" fill="#f1f5f9"/><rect x="105" y="170" width="175" height="38" rx="8" fill="#0f2a5f"/><circle cx="160" cy="245" r="48" fill="#050f2c"/><circle cx="160" cy="245" r="20" fill="#94a3b8"/><circle cx="510" cy="245" r="48" fill="#050f2c"/><circle cx="510" cy="245" r="20" fill="#94a3b8"/><rect x="40" y="85" width="12" height="100" fill="#f5a524"/></g></svg>
